<svg width="65" height="67" viewBox="0 0 65 67" fill="none" xmlns="http://www.w3.org/2000/svg">
<path d="M35.5146 4.98614L36.7547 8.2309C37.164 9.30246 38.1633 10.0249 39.3071 10.0851L42.7746 10.2596C45.4234 10.3921 46.507 13.7271 44.4422 15.3947L41.7392 17.5739C40.8482 18.2903 40.469 19.4702 40.764 20.5718L41.667 23.9249C42.3593 26.4834 39.5239 28.5423 37.3025 27.0975L34.3948 25.2012C33.4377 24.5751 32.1976 24.5751 31.2404 25.2012L28.3327 27.0975C26.1114 28.5483 23.276 26.4834 23.9683 23.9249L24.8713 20.5718C25.1723 19.4642 24.787 18.2903 23.896 17.5739L21.1931 15.3947C19.1282 13.7271 20.2118 10.3981 22.8606 10.2596L26.3281 10.0851C27.4719 10.0249 28.4712 9.30246 28.8806 8.2309L30.1207 4.98614C31.0658 2.50592 34.5694 2.50592 35.5146 4.98614Z" fill="url(#paint0_linear_484_5596)"/>
<path d="M13.7223 13.8235L14.535 15.9486C14.7999 16.6469 15.4561 17.1225 16.2086 17.1646L18.4781 17.279C20.2118 17.3693 20.9222 19.5485 19.5677 20.6381L17.7978 22.0649C17.2139 22.5344 16.9611 23.305 17.1597 24.0274L17.7497 26.2247C18.2012 27.9042 16.347 29.2527 14.8902 28.3015L12.9819 27.0614C12.3558 26.6521 11.5431 26.6521 10.917 27.0614L9.0087 28.3015C7.55187 29.2527 5.69772 27.8982 6.14922 26.2247L6.73917 24.0274C6.93181 23.305 6.68499 22.5344 6.10106 22.0649L4.33119 20.6381C2.9767 19.5485 3.68705 17.3633 5.4208 17.279L7.69033 17.1646C8.4368 17.1285 9.09298 16.6529 9.36388 15.9486L10.1766 13.8235C10.7966 12.1981 13.0902 12.1981 13.7103 13.8235H13.7223Z" fill="url(#paint1_linear_484_5596)"/>
<path d="M55.4469 13.8235L56.2596 15.9486C56.5245 16.6469 57.1807 17.1225 57.9332 17.1646L60.2027 17.279C61.9365 17.3693 62.6468 19.5485 61.2923 20.6381L59.5224 22.0649C58.9385 22.5344 58.6857 23.305 58.8843 24.0274L59.4743 26.2247C59.9258 27.9042 58.0716 29.2527 56.6148 28.3015L54.7065 27.0614C54.0804 26.6521 53.2677 26.6521 52.6416 27.0614L50.7333 28.3015C49.2765 29.2527 47.4223 27.8982 47.8738 26.2247L48.4638 24.0274C48.6564 23.305 48.4096 22.5344 47.8257 22.0649L46.0558 20.6381C44.7013 19.5485 45.4117 17.3633 47.1454 17.279L49.4149 17.1646C50.1614 17.1285 50.8176 16.6529 51.0885 15.9486L51.9012 13.8235C52.5212 12.1981 54.8148 12.1981 55.4349 13.8235H55.4469Z" fill="url(#paint2_linear_484_5596)"/>
<path d="M46.1763 34.7184H31.909L35.828 29.1318C37.6882 26.483 37.044 22.8349 34.4013 20.9748L33.8715 20.6015C32.7217 19.7949 31.1384 20.0718 30.3318 21.2216L16.9795 40.2507L20.5794 42.7791V56.92C20.5794 59.7915 22.9092 62.1152 25.7747 62.1152H43.371C45.7669 62.1152 47.8499 60.4778 48.4217 58.148L52.2504 42.448C53.2076 38.5109 50.2277 34.7123 46.1763 34.7123V34.7184Z" fill="url(#paint3_linear_484_5596)"/>
<path d="M17.6722 31.8291H11.6944C9.50004 31.8291 7.72119 33.608 7.72119 35.8023V59.8942C7.72119 62.0885 9.50004 63.8673 11.6944 63.8673H17.6722C19.8665 63.8673 21.6454 62.0885 21.6454 59.8942V35.8023C21.6454 33.608 19.8665 31.8291 17.6722 31.8291Z" fill="url(#paint4_linear_484_5596)"/>
<path d="M14.6855 41.8818C16.4643 41.8818 17.9062 40.4398 17.9062 38.6611C17.9062 36.8824 16.4643 35.4404 14.6855 35.4404C12.9068 35.4404 11.4648 36.8824 11.4648 38.6611C11.4648 40.4398 12.9068 41.8818 14.6855 41.8818Z" fill="url(#paint5_linear_484_5596)"/>
<path style="mix-blend-mode:multiply" d="M31.909 34.7183H30.5244L36.1531 28.6201L31.909 34.7183Z" fill="url(#paint6_linear_484_5596)"/>
<defs>
<linearGradient id="paint0_linear_484_5596" x1="23.9201" y1="8.13458" x2="41.7151" y2="25.9296" gradientUnits="userSpaceOnUse">
<stop stop-color="#F8E54B"/>
<stop offset="0.99" stop-color="#EBAF34"/>
</linearGradient>
<linearGradient id="paint1_linear_484_5596" x1="6.12514" y1="15.8884" x2="17.7858" y2="27.543" gradientUnits="userSpaceOnUse">
<stop stop-color="#F8E54B"/>
<stop offset="0.99" stop-color="#EBAF34"/>
</linearGradient>
<linearGradient id="paint2_linear_484_5596" x1="47.8497" y1="15.8884" x2="59.5044" y2="27.543" gradientUnits="userSpaceOnUse">
<stop stop-color="#F8E54B"/>
<stop offset="0.99" stop-color="#EBAF34"/>
</linearGradient>
<linearGradient id="paint3_linear_484_5596" x1="20.0437" y1="30.3358" x2="47.0853" y2="60.5801" gradientUnits="userSpaceOnUse">
<stop stop-color="#F9F7F8"/>
<stop offset="0.41" stop-color="#F0EEF8"/>
<stop offset="1" stop-color="#E9E7F9"/>
</linearGradient>
<linearGradient id="paint4_linear_484_5596" x1="4.72325" y1="36.7113" x2="24.6433" y2="58.9972" gradientUnits="userSpaceOnUse">
<stop stop-color="#3F8FEB"/>
<stop offset="1" stop-color="#305DB3"/>
</linearGradient>
<linearGradient id="paint5_linear_484_5596" x1="12.5364" y1="36.2591" x2="16.8286" y2="41.0571" gradientUnits="userSpaceOnUse">
<stop stop-color="white"/>
<stop offset="0.15" stop-color="white" stop-opacity="0.85"/>
<stop offset="0.3" stop-color="white" stop-opacity="0.72"/>
<stop offset="0.46" stop-color="white" stop-opacity="0.62"/>
<stop offset="0.62" stop-color="white" stop-opacity="0.55"/>
<stop offset="0.8" stop-color="white" stop-opacity="0.51"/>
<stop offset="1" stop-color="white" stop-opacity="0.5"/>
</linearGradient>
<linearGradient id="paint6_linear_484_5596" x1="33.0769" y1="31.3773" x2="34.2207" y2="32.6595" gradientUnits="userSpaceOnUse">
<stop stop-color="#F9F7F8"/>
<stop offset="0.41" stop-color="#F0EEF8"/>
<stop offset="1" stop-color="#E9E7F9"/>
</linearGradient>
</defs>
</svg>
